HIERARCHY
ROOT Hips
{
	OFFSET 0.00 0.00 0.00
	CHANNELS 6 Xposition Yposition Zposition Xrotation Yrotation Zrotation
	JOINT Spine
	{
		OFFSET 0.00000 6.11665 0.00000
		CHANNELS 3 Xrotation Yrotation Zrotation
		JOINT Head
		{
			OFFSET 0.00000 15.22556 0.00000
			CHANNELS 3 Xrotation Yrotation Zrotation
			End Site
			{
				OFFSET 0.00000 4.52755 0.00000
			}
		}
		JOINT LeftShoulder
		{
			OFFSET 0.00000 8.97765 0.00000
			CHANNELS 3 Xrotation Yrotation Zrotation
			JOINT LeftArm
			{
				OFFSET 7.11013 0.00000 0.00000
				CHANNELS 3 Xrotation Yrotation Zrotation
				JOINT LeftForeArm
				{
					OFFSET 10.39834 0.00000 0.00000
					CHANNELS 3 Yrotation Zrotation Xrotation
					JOINT LeftHand
					{
						OFFSET 8.88900 0.00000 0.00000
						CHANNELS 3 Xrotation Yrotation Zrotation
						JOINT LeftHandThumb1
						{
							OFFSET 0.00000 0.00000 0.00000
							CHANNELS 3 Xrotation Zrotation Yrotation
							End Site
							{
								OFFSET 0.00000 0.00000 3.93700
							}
						}
						End Site
						{
							OFFSET 3.93700 0.00000 0.00000
						}
					}
				}
			}
		}
		JOINT RightShoulder
		{
			OFFSET 0.00000 8.97765 0.00000
			CHANNELS 3 Xrotation Yrotation Zrotation
			JOINT RightArm
			{
				OFFSET -7.11013 0.00000 0.00000
				CHANNELS 3 Xrotation Yrotation Zrotation
				JOINT RightForeArm
				{
					OFFSET -10.39834 0.00000 0.00000
					CHANNELS 3 Yrotation Zrotation Xrotation
					JOINT RightHand
					{
						OFFSET -8.88900 0.00000 0.00000
						CHANNELS 3 Xrotation Yrotation Zrotation
						JOINT RightHandThumb1
						{
							OFFSET 0.00000 0.00000 0.00000
							CHANNELS 3 Xrotation Zrotation Yrotation
							End Site
							{
								OFFSET 0.00000 0.00000 3.93700
							}
						}
						End Site
						{
							OFFSET -3.93700 0.00000 0.00000
						}
					}
				}
			}
		}
	}
	JOINT LeftUpLeg
	{
		OFFSET 4.71176 0.00000 0.00000
		CHANNELS 3 Xrotation Yrotation Zrotation
		JOINT LeftLeg
		{
			OFFSET 0.00000 -15.51045 0.00000
			CHANNELS 3 Xrotation Yrotation Zrotation
			JOINT LeftFoot
			{
				OFFSET 0.00000 -14.85806 0.00000
				CHANNELS 3 Xrotation Yrotation Zrotation
				JOINT LeftToeBase
				{
					OFFSET 0.00000 -1.32744 4.95409
					CHANNELS 3 Xrotation Yrotation Zrotation
					End Site
					{
						OFFSET 0.00000 0.00000 2.95275
					}
				}
			}
		}
	}
	JOINT RightUpLeg
	{
		OFFSET -4.71176 0.00000 0.00000
		CHANNELS 3 Xrotation Yrotation Zrotation
		JOINT RightLeg
		{
			OFFSET 0.00000 -15.51045 0.00000
			CHANNELS 3 Xrotation Yrotation Zrotation
			JOINT RightFoot
			{
				OFFSET 0.00000 -14.85806 0.00000
				CHANNELS 3 Xrotation Yrotation Zrotation
				JOINT RightToeBase
				{
					OFFSET 0.00000 -1.32744 4.95409
					CHANNELS 3 Xrotation Yrotation Zrotation
					End Site
					{
						OFFSET 0.00000 0.00000 2.95275
					}
				}
			}
		}
	}
}
MOTION
Frames: 17
Frame Time: 0.008333
 8.8633 32.2524 -4.5615 3.9562 -7.5372 -0.8938 2.6722 10.7031 -3.8271 13.8680 -11.9115 5.1403 -6.2448 16.4891 29.6025 5.2934 43.1737 -74.6357 -98.0907 -0.0000 -8.8372 3.1831 -17.9696 10.2185 33.1476 -0.0000 26.2537 13.2473 -27.4568 -24.1951 -12.3392 38.3738 97.2168 103.2956 0.0000 23.5764 -0.3021 18.4566 0.9541 32.8623 0.0000 -24.3270 1.5118 0.7815 -8.2266 -4.5771 -0.0000 0.0000 -10.7517 24.9006 -4.5360 23.3493 -0.0000 0.0000 -17.3495 -47.3459 -21.6902 82.1771 0.0000 0.0000 36.3988 -7.9919 43.2466 20.6590 0.0000 0.0000
 8.8586 32.2585 -4.5505 3.8991 -7.7043 -0.9664 2.6956 10.8499 -3.8225 13.9752 -11.8645 5.1467 -6.1986 16.5327 29.5935 5.2686 43.2984 -74.6069 -98.1295 -0.0000 -8.8232 3.2137 -17.9752 10.3117 33.1476 -0.0000 26.2537 13.2713 -27.4783 -24.1852 -12.3841 38.4473 97.2499 103.3317 0.0000 23.5807 -0.3024 18.3959 0.9582 32.8623 0.0000 -24.3270 1.6103 0.8714 -8.1561 -4.6021 -0.0000 -0.0000 -10.8108 25.0156 -4.5729 23.5114 -0.0000 -0.0000 -18.3591 -48.7308 -22.8991 82.1046 0.0000 0.0000 36.3905 -7.8040 43.1115 19.0902 0.0000 0.0000
 8.8552 32.2627 -4.5400 3.8415 -7.8496 -1.0307 2.7219 10.9490 -3.8035 14.0467 -11.8693 5.1192 -6.1704 16.5679 29.5719 5.2712 43.4216 -74.5564 -98.1719 -0.0000 -8.8429 3.2407 -17.9508 10.4099 33.1476 -0.0000 26.2537 13.2676 -27.4619 -24.2303 -12.4090 38.4913 97.3233 103.3684 0.0000 23.6244 -0.3042 18.3863 0.9644 32.8623 0.0000 -24.3270 1.7181 0.7872 -8.0911 -4.6775 0.0000 -0.0000 -10.8575 25.2279 -4.5886 23.5859 -0.0000 -0.0000 -19.4217 -50.0968 -24.1683 82.0330 -0.0000 -0.0000 36.3965 -7.6784 43.1574 19.3356 -0.0000 -0.0000
 8.8510 32.2666 -4.5303 3.7824 -7.9549 -1.0897 2.7762 11.0268 -3.8149 14.0758 -11.7570 5.0762 -6.1343 16.6200 29.5733 5.2518 43.5164 -74.5312 -98.2367 -0.0000 -8.9027 3.2155 -17.9320 10.3410 33.1476 -0.0000 26.2537 13.2706 -27.4670 -24.2321 -12.4188 38.5366 97.3579 103.4069 0.0000 23.6227 -0.3059 18.4086 0.9687 32.8623 0.0000 -24.3270 1.8210 0.7688 -8.0289 -4.7394 0.0000 0.0000 -10.8441 25.3294 -4.5512 23.6262 -0.0000 -0.0000 -20.5546 -51.4573 -25.4993 81.9726 -0.0000 -0.0000 36.3962 -7.5692 43.2746 19.0527 -0.0000 0.0000
 8.8477 32.2692 -4.5201 3.7288 -8.0533 -1.1419 2.8204 11.0924 -3.8177 14.0965 -11.6767 5.0176 -6.0822 16.6676 29.5662 5.2141 43.6311 -74.5080 -98.2758 -0.0000 -8.9387 3.2064 -18.0191 10.2650 33.1476 -0.0000 26.2537 13.2887 -27.4758 -24.2529 -12.4476 38.5713 97.4103 103.4479 0.0000 23.6356 -0.3191 18.3740 1.0124 32.8623 0.0000 -24.3270 1.9121 0.8105 -7.9799 -4.7648 -0.0000 -0.0000 -10.8723 25.3643 -4.5700 23.5635 -0.0000 -0.0000 -21.7580 -52.7977 -26.8829 81.8900 0.0000 -0.0000 36.3733 -7.3997 43.1024 19.4296 -0.0000 0.0000
 8.8435 32.2711 -4.5060 3.6592 -8.1589 -1.1945 2.8773 11.1513 -3.8248 14.0884 -11.5623 4.9603 -6.0850 16.7008 29.5441 5.2346 43.7086 -74.4215 -98.3698 -0.0000 -9.0188 3.1925 -17.9968 10.2334 33.1476 -0.0000 26.2537 13.2924 -27.4687 -24.2650 -12.4484 38.6216 97.4494 103.4836 0.0000 23.6510 -0.3161 18.3739 1.0029 32.8623 0.0000 -24.3270 2.0445 0.8734 -7.9315 -4.8167 -0.0000 -0.0000 -10.8992 25.3671 -4.5909 23.5795 0.0000 -0.0000 -22.9547 -54.0739 -28.2751 81.8128 0.0000 0.0000 36.3563 -7.2687 43.1672 20.3917 -0.0000 -0.0000
 8.8420 32.2724 -4.4977 3.6179 -8.2315 -1.2335 2.9224 11.1672 -3.8273 14.0526 -11.5152 4.9060 -6.0702 16.7509 29.4782 5.2458 43.7445 -74.3078 -98.4988 -0.0000 -9.1028 3.2088 -17.9808 10.2934 33.1476 -0.0000 26.2537 13.3221 -27.4588 -24.2783 -12.4725 38.6411 97.4810 103.5363 0.0000 23.6510 -0.3438 18.3671 1.0910 32.8623 0.0000 -24.3270 2.1052 0.8193 -7.8943 -4.8180 0.0000 -0.0000 -10.9492 25.3909 -4.5237 23.4840 0.0000 -0.0000 -24.3078 -55.3500 -29.7953 81.7542 -0.0000 -0.0000 36.4594 -7.1045 43.0962 20.5628 -0.0000 0.0000
 8.8415 32.2727 -4.4936 3.6015 -8.2954 -1.2777 2.9486 11.1802 -3.8211 14.0118 -11.4214 4.8302 -6.0642 16.7946 29.4458 5.2688 43.7959 -74.2707 -98.6225 -0.0000 -9.1578 3.2235 -17.8902 10.3892 33.1476 -0.0000 26.2537 13.3380 -27.4540 -24.3025 -12.5077 38.6740 97.5111 103.5585 0.0000 23.6230 -0.3314 18.3966 1.0499 32.8623 0.0000 -24.3270 2.1217 0.7794 -7.8536 -4.8154 0.0000 -0.0000 -11.0438 25.5287 -4.5875 23.7357 -0.0000 0.0000 -25.6716 -56.5124 -31.2755 81.7370 -0.0000 0.0000 36.4326 -6.9741 43.5808 22.2260 -0.0000 -0.0000
 8.8407 32.2733 -4.4851 3.5660 -8.3663 -1.2970 2.9893 11.1905 -3.8504 13.9814 -11.3459 4.7846 -6.0275 16.8632 29.4078 5.2503 43.8487 -74.2282 -98.7412 -0.0000 -9.2371 3.2036 -17.9210 10.3093 33.1476 -0.0000 26.2537 13.4136 -27.4679 -24.2862 -12.5822 38.7169 97.5286 103.5679 0.0000 23.5803 -0.3222 18.4329 1.0190 32.8623 0.0000 -24.3270 2.1731 0.6730 -7.8246 -4.8348 -0.0000 -0.0000 -11.0455 25.5971 -4.5286 23.6160 0.0000 -0.0000 -27.1274 -57.6537 -32.8515 81.7114 0.0000 -0.0000 36.4672 -6.9296 43.7182 23.3790 0.0000 -0.0000
 8.8390 32.2750 -4.4792 3.5548 -8.4403 -1.3369 2.9986 11.2316 -3.8549 13.9633 -11.2731 4.7580 -5.9959 16.9064 29.3850 5.2433 43.9043 -74.2306 -98.8485 -0.0000 -9.4001 3.2109 -17.8122 10.3922 33.1476 -0.0000 26.2537 13.4245 -27.4639 -24.2870 -12.5719 38.7467 97.5353 103.5688 0.0000 23.5604 -0.3066 18.4555 0.9685 32.8623 0.0000 -24.3270 2.1987 0.6164 -7.7689 -4.8612 -0.0000 0.0000 -11.0561 25.6922 -4.5827 23.5803 0.0000 0.0000 -28.6616 -58.7775 -34.4417 81.6512 0.0000 -0.0000 36.6216 -6.6857 43.0845 22.8865 0.0000 -0.0000
 8.8393 32.2737 -4.4705 3.5207 -8.5377 -1.3654 3.0294 11.3004 -3.8551 13.9418 -11.2962 4.7319 -6.0083 16.9078 29.3338 5.2861 43.9366 -74.1857 -98.9882 -0.0000 -9.3777 3.1659 -17.8956 10.2042 33.1476 -0.0000 26.2537 13.3888 -27.4635 -24.3458 -12.5426 38.7738 97.5698 103.5651 0.0000 23.5504 -0.3068 18.4609 0.9687 32.8623 0.0000 -24.3270 2.2773 0.6027 -7.7460 -4.9206 0.0000 0.0000 -11.0912 25.7688 -4.5479 23.5898 0.0000 0.0000 -30.1680 -59.7536 -36.0043 81.6574 0.0000 0.0000 36.6383 -6.5529 43.1033 23.5826 -0.0000 -0.0000
 8.8401 32.2743 -4.4657 3.5183 -8.6276 -1.3785 3.0426 11.3640 -3.8851 13.9226 -11.2221 4.7018 -5.9597 16.9722 29.4083 5.3131 43.9572 -74.3683 -99.0143 -0.0000 -9.3045 3.1762 -17.9344 10.2156 33.1476 -0.0000 26.2537 13.4194 -27.4672 -24.3281 -12.5331 38.7808 97.5552 103.5625 0.0000 23.5448 -0.3117 18.4595 0.9843 32.8623 0.0000 -24.3270 2.2965 0.5764 -7.7272 -4.9277 0.0000 -0.0000 -11.1388 25.8263 -4.6071 23.7675 -0.0000 0.0000 -31.7080 -60.6544 -37.5422 81.6652 0.0000 -0.0000 36.6330 -6.3146 42.8563 21.3864 0.0000 -0.0000
 8.8422 32.2739 -4.4607 3.5202 -8.7532 -1.3703 3.0553 11.4465 -3.9301 13.8860 -11.1355 4.6452 -5.9928 16.9865 29.4580 5.4248 43.9684 -74.4603 -99.0852 -0.0000 -9.2812 3.1752 -17.9264 10.2168 33.1476 -0.0000 26.2537 13.4397 -27.4656 -24.3199 -12.5241 38.8021 97.5463 103.5599 0.0000 23.5315 -0.3084 18.4585 0.9739 32.8623 0.0000 -24.3270 2.3212 0.5787 -7.7216 -4.9663 0.0000 0.0000 -11.1557 25.9440 -4.8022 23.9809 0.0000 0.0000 -33.1632 -61.3979 -38.9557 81.7084 0.0000 0.0000 36.5312 -6.0409 42.8245 19.1113 0.0000 -0.0000
 8.8439 32.2742 -4.4567 3.5188 -8.8959 -1.3812 3.0687 11.5633 -3.9430 13.8519 -11.0347 4.5764 -5.9892 16.9855 29.4717 5.5053 43.9782 -74.5371 -99.1596 -0.0000 -9.2289 3.1718 -17.9260 10.2062 33.1476 -0.0000 26.2537 13.4897 -27.4751 -24.2998 -12.5323 38.7958 97.5309 103.5524 0.0000 23.5518 -0.3190 18.4565 1.0077 32.8623 0.0000 -24.3270 2.3646 0.6488 -7.7088 -5.0139 -0.0000 0.0000 -11.1477 25.9711 -4.8451 23.9453 0.0000 0.0000 -34.4936 -62.0606 -40.2093 81.6956 0.0000 -0.0000 36.5632 -5.7340 42.4876 18.8714 -0.0000 -0.0000
 8.8450 32.2740 -4.4549 3.5291 -9.0621 -1.3948 3.0739 11.6958 -3.9430 13.7976 -10.9632 4.4894 -5.9713 16.9673 29.4615 5.5858 44.0061 -74.5844 -99.2441 -0.0000 -9.3303 3.2295 -17.8122 10.4511 33.1476 -0.0000 26.2537 13.5257 -27.4824 -24.2854 -12.5440 38.8018 97.5127 103.5397 0.0000 23.5336 -0.3284 18.4669 1.0368 32.8623 0.0000 -24.3270 2.3998 0.7282 -7.6973 -5.0670 -0.0000 0.0000 -11.1349 25.9436 -4.7460 23.7865 -0.0000 -0.0000 -35.8221 -62.6334 -41.3837 81.7072 0.0000 -0.0000 36.6764 -5.7437 42.4060 19.1747 -0.0000 0.0000
 8.8494 32.2736 -4.4544 3.5391 -9.2400 -1.3870 3.0868 11.8126 -3.9582 13.7337 -10.8826 4.4119 -5.9668 16.9568 29.4281 5.6784 44.0450 -74.6071 -99.3560 -0.0000 -9.2960 3.1502 -18.0102 10.0932 33.1476 -0.0000 26.2537 13.4870 -27.4481 -24.3051 -12.4984 38.8102 97.4785 103.5280 0.0000 23.5453 -0.3409 18.4446 1.0775 32.8623 0.0000 -24.3270 2.4188 0.7570 -7.6991 -5.1149 -0.0000 0.0000 -11.1470 26.0757 -4.8618 23.8880 -0.0000 0.0000 -37.0280 -63.0921 -42.4182 81.7319 0.0000 -0.0000 36.7359 -5.6846 42.3688 18.6366 -0.0000 -0.0000
 8.8535 32.2721 -4.4530 3.5402 -9.4247 -1.3766 3.1114 11.9256 -3.9819 13.6624 -10.7932 4.3457 -5.9363 16.9718 29.3932 5.7231 44.0820 -74.6297 -99.4740 -0.0000 -9.3588 3.1999 -17.7412 10.3964 33.1476 -0.0000 26.2537 13.4438 -27.4079 -24.3211 -12.4548 38.8192 97.4437 103.5112 0.0000 23.5456 -0.3481 18.4246 1.1013 32.8623 0.0000 -24.3270 2.4493 0.7897 -7.7105 -5.1540 -0.0000 0.0000 -11.1350 26.1012 -4.7918 23.7474 0.0000 -0.0000 -38.1083 -63.4592 -43.3151 81.7837 -0.0000 0.0000 36.7304 -5.6327 42.4063 18.2902 0.0000 0.0000
